<?xml version="1.0" standalone="no"?>
<!DOCTYPE svg PUBLIC "-//W3C//DTD SVG 20010904//EN"
        "http://www.w3.org/TR/2001/REC-SVG-20010904/DTD/svg10.dtd">
<svg version="1.0" xmlns="http://www.w3.org/2000/svg"
     width="578.000000pt" height="601.000000pt" viewBox="0 0 578.000000 601.000000"
     preserveAspectRatio="xMidYMid meet">

    <g transform="translate(0.000000,601.000000) scale(0.100000,-0.100000)"
       fill="#f4f4f6" stroke="none">
        <path d="M783 5985 c-148 -27 -281 -86 -411 -184 -196 -148 -335 -387 -362
-621 -13 -115 -13 -4255 0 -4370 23 -202 126 -399 289 -552 124 -117 254 -191
413 -233 l96 -25 2098 2 2099 3 85 29 c333 112 554 344 652 683 l23 78 0 2200
0 2200 -23 85 c-46 173 -163 368 -288 479 -104 93 -215 153 -389 210 l-80 26
-2065 2 c-1662 1 -2079 -1 -2137 -12z m2282 -614 c49 -22 107 -80 132 -130 11
-23 17 -58 17 -101 0 -81 -39 -160 -96 -198 -21 -13 -38 -32 -38 -41 0 -9 0
-272 0 -586 l1 -570 -118 -113 -118 -114 -5 699 -5 699 -39 35 c-81 71 -110
199 -65 294 23 49 84 110 133 131 46 20 153 17 201 -5z m-794 -547 c71 -21
149 -98 168 -167 26 -93 -2 -188 -78 -261 l-40 -39 6 -686 6 -686 -121 -114
-122 -113 0 793 0 794 -54 47 c-67 59 -99 121 -98 191 1 115 66 202 181 243
49 18 87 17 152 -2z m2260 -50 c154 -29 155 -23 -22 -160 -85 -66 -200 -155
-257 -198 -72 -55 -101 -83 -98 -95 21 -70 86 -316 86 -324 0 -5 -11 -22 -25
-39 -31 -37 -32 -68 -2 -95 28 -26 359 -203 379 -203 9 0 80 48 159 107 229
169 430 313 440 313 22 0 -7 -239 -41 -341 -69 -203 -221 -372 -413 -459 -122
-55 -272 -66 -412 -30 -97 25 -152 56 -204 117 -65 76 -87 133 -117 298 -40
227 -73 390 -83 418 -6 16 -40 43 -93 75 -120 73 -120 72 -98 155 29 112 75
193 154 272 166 168 399 236 647 189z m-3160 -272 c98 -51 146 -142 136 -258
l-5 -62 124 -123 124 -124 0 -627 0 -628 -115 0 -115 0 0 583 0 582 -94 94
-93 93 -46 -7 c-101 -15 -217 51 -263 149 -98 211 140 436 347 328z m2343
-555 c3 -12 19 -119 36 -237 17 -118 35 -229 41 -246 7 -24 30 -42 109 -90 55
-32 99 -65 97 -71 -1 -7 -263 -279 -582 -605 -319 -326 -603 -617 -631 -645
-28 -29 -55 -53 -60 -53 -5 0 -31 39 -57 85 -26 46 -68 111 -92 144 -25 32
-45 62 -45 66 0 5 234 243 519 529 512 514 519 522 526 569 5 32 3 52 -5 62
-19 22 -82 19 -116 -7 -16 -11 -258 -250 -539 -529 l-510 -509 -68 46 -67 46
31 39 c59 75 1386 1429 1400 1429 4 0 9 -10 13 -23z m-2686 -276 c109 -56 162
-177 129 -292 -68 -231 -377 -247 -478 -25 -74 162 76 358 259 341 30 -3 70
-14 90 -24z m7 -895 l0 -209 -105 -63 c-58 -35 -108 -63 -112 -64 -5 0 -8 121
-8 269 l0 270 28 4 c15 2 65 4 112 3 l85 -1 0 -209z m4034 180 c17 -9 47 -33
67 -53 125 -124 88 -320 -75 -402 -115 -59 -229 -24 -323 97 l-18 22 -475 0
c-261 0 -475 3 -475 6 0 4 46 55 101 115 l101 109 377 0 377 0 35 36 c50 52
87 77 137 89 51 13 124 5 171 -19z m-1065 -608 l254 -248 231 0 230 0 43 43
c94 93 204 113 314 57 91 -47 133 -114 134 -215 0 -82 -17 -125 -74 -182 -111
-112 -260 -105 -370 17 l-36 40 -284 0 -283 0 -231 225 -230 225 -109 0 c-60
0 -113 3 -116 6 -8 8 253 286 264 282 5 -2 123 -114 263 -250z m-2139 -5 c102
-29 184 -65 262 -116 185 -119 330 -317 400 -544 24 -79 27 -104 27 -243 1
-132 -2 -168 -22 -240 -84 -309 -342 -569 -662 -664 -138 -42 -371 -37 -520 9
-218 69 -433 230 -545 409 -90 145 -135 302 -135 473 1 434 286 805 709 920
78 21 101 23 251 19 124 -3 183 -9 235 -23z m1449 -300 c34 -31 198 -190 366
-353 168 -163 311 -300 318 -304 7 -4 25 3 44 19 58 49 108 68 178 69 112 1
209 -68 245 -173 19 -56 19 -84 0 -147 -19 -63 -60 -113 -124 -147 -109 -60
-218 -40 -314 57 -29 29 -64 56 -80 60 -17 4 -150 126 -378 349 -193 188 -357
345 -365 350 -7 4 -38 4 -68 1 l-56 -7 0 -373 0 -374 103 0 c89 0 107 -3 144
-24 36 -21 51 -23 102 -19 159 15 293 -97 293 -244 1 -79 -24 -134 -84 -188
-90 -81 -193 -93 -296 -34 -89 51 -140 145 -129 240 l6 49 -217 1 c-119 1
-224 1 -232 0 -43 -3 -42 15 12 118 l53 102 3 306 3 306 192 199 c106 110 194
204 195 209 7 18 27 8 86 -48z"/>
    </g>
</svg>
